# xmcd CD database file
#
# Track frame offsets:
#	150
#	19718
#	39585
#	70280
#
# Disc length: 1321 seconds
#
# Revision: 0
# Processed by: cddbd v1.5.1PL2 Copyright (c) Steve Scherf et al.
# Submitted via: CDex 1.51
#
DISCID=2d052704
DTITLE=空気公団 - やさしい朝
DYEAR=2005
DGENRE=JPop
TTITLE0=暮らし
TTITLE1=やさしい朝
TTITLE2=風に乗った言葉
TTITLE3=「鍵がない」メイキング映像
EXTD=YEAR: 2005
EXTT0=
EXTT1=
EXTT2=
EXTT3=
PLAYORDER=
